<?xml version="1.0" encoding="UTF-8"?>
<svg width="201px" height="33px" viewBox="0 0 201 33" version="1.1" xmlns="http://www.w3.org/2000/svg" xmlns:xlink="http://www.w3.org/1999/xlink">
    <!-- Generator: Sketch 48.2 (47327) - http://www.bohemiancoding.com/sketch -->
    <title>Group 7</title>
    <desc>Created with Sketch.</desc>
    <defs></defs>
    <g id="Keeptruckin-Logo" stroke="none" stroke-width="1" fill="none" fill-rule="evenodd">
        <g id="Group-7">
            <g id="Keep">
                <path d="M2.20126582,32.214615 L52.6153286,32.214615 C52.6153286,16.2006869 52.5110424,0.18657221 52.5110424,0.18657221 L2.16681085,0.18657221 C1.41911968,0.18657221 0.789164999,0.817251982 0.695565414,1.65753619 C0.270682262,5.47334478 -0.646888467,16.3968528 0.727072361,30.7132276 C0.808879872,31.5669504 1.44344083,32.214615 2.20126582,32.214615" id="Dark" fill="#585858"></path>
                <polygon id="Fill-4" fill="#FFFFFF" points="10.6769757 18.1051009 9.90731188 19.7035447 9.90731188 25.0735618 7.41732257 25.0735618 7.41732257 7.58997627 9.90731188 7.58997627 9.90731188 15.2077816 13.166965 7.58997627 15.6569543 7.58997627 12.1935611 15.3826697 15.6569543 25.0735618 13.0991143 25.0735618"></polygon>
                <polygon id="Fill-6" fill="#FFFFFF" points="21.333709 14.9579734 24.7518057 14.9579734 24.7518057 17.4556818 21.333709 17.4556818 21.333709 22.5757787 25.6346167 22.5757787 25.6346167 25.0734871 18.8435317 25.0734871 18.8435317 7.58990161 25.6346167 7.58990161 25.6346167 10.08761 21.333709 10.08761"></polygon>
                <polygon id="Fill-8" fill="#FFFFFF" points="31.4948689 14.9579734 34.9129657 14.9579734 34.9129657 17.4556818 31.4948689 17.4556818 31.4948689 22.5757787 35.7957767 22.5757787 35.7957767 25.0734871 29.0048796 25.0734871 29.0048796 7.58990161 35.7957767 7.58990161 35.7957767 10.08761 31.4948689 10.08761"></polygon>
                <path d="M41.6560289,10.087666 L41.6560289,16.0069848 L42.8331729,16.0069848 C43.6255789,16.0069848 44.0556133,15.6323846 44.0556133,14.3585197 L44.0556133,11.7359445 C44.0556133,10.4622663 43.6255789,10.087666 42.8331729,10.087666 L41.6560289,10.087666 Z M42.8331729,7.58995761 C45.3457164,7.58995761 46.5456026,9.08835867 46.5456026,11.9110193 L46.5456026,14.1836316 C46.5456026,17.0059189 45.3457164,18.5046932 42.8331729,18.5046932 L41.6560289,18.5046932 L41.6560289,25.0735431 L39.1660396,25.0735431 L39.1660396,7.58995761 L42.8331729,7.58995761 Z" id="Fill-10" fill="#FFFFFF"></path>
            </g>
            <g id="Truckin" transform="translate(53.000000, 0.000000)">
                <g id="T">
                    <polygon id="Fill-12" fill="#4A88C2" points="0.656351858 32.2146897 20.519333 32.2146897 20.519333 0.186646869 0.656351858 0.186646869"></polygon>
                    <polygon id="Fill-14" fill="#FFFFFF" points="6.75382994 7.58980829 14.4223793 7.58980829 14.4223793 10.0875167 11.8286163 10.0875167 11.8286163 25.0733938 9.34759299 25.0733938 9.34759299 10.0875167 6.75382994 10.0875167"></polygon>
                </g>
                <g id="R" transform="translate(21.694444, 0.000000)">
                    <polygon id="Fill-15" fill="#4A88C2" points="0.0818804834 32.2146897 19.9448617 32.2146897 19.9448617 0.186646869 0.0818804834 0.186646869"></polygon>
                    <path d="M8.86327595,10.0874794 L8.86327595,15.4574964 L9.83317478,15.4574964 C10.7579403,15.4574964 11.3218262,15.0078641 11.3218262,13.6091325 L11.3218262,11.885822 C11.3218262,10.6121437 10.9382864,10.0874794 10.0586542,10.0874794 L8.86327595,10.0874794 Z M11.569966,25.0733565 C11.5473057,24.9484897 11.5021723,24.8486337 11.4796993,24.7487776 C11.4119056,24.5486921 11.3669596,24.2741346 11.3669596,23.7996783 C11.3442993,23.5747688 11.3442993,23.2750139 11.3442993,22.9254243 L11.3442993,20.1781691 C11.3442993,18.5545279 10.87068,17.9550182 9.72043504,17.9550182 L8.86327595,17.9550182 L8.86327595,25.0733565 L6.38225264,25.0733565 L6.38225264,7.58977096 L10.1264479,7.58977096 C12.720211,7.58977096 13.8028495,8.9136572 13.8028495,11.6110778 L13.8028495,12.9846121 C13.8028495,14.7831413 13.2614366,15.9569635 12.1789853,16.5312759 C13.44197,17.1059616 13.8253226,18.4294745 13.8253226,20.2530145 L13.8253226,22.950435 C13.8253226,23.8246889 13.8479829,24.3990014 14.0959354,25.0733565 L11.569966,25.0733565 Z" id="Fill-16" fill="#FFFFFF"></path>
                </g>
                <g id="U" transform="translate(42.768519, 0.000000)">
                    <polygon id="Fill-17" fill="#4A88C2" points="0.117104787 32.3203318 19.980086 32.3203318 19.980086 0.292288997 0.117104787 0.292288997"></polygon>
                    <path d="M8.83089386,7.69552508 L8.83089386,21.1830011 C8.83089386,22.4566794 9.32698616,22.881301 10.1165389,22.881301 C10.9059043,22.881301 11.4019966,22.4566794 11.4019966,21.1830011 L11.4019966,7.69552508 L13.7478071,7.69552508 L13.7478071,21.0079264 C13.7478071,23.8304003 12.4848224,25.4038334 10.0487452,25.4038334 C7.61285525,25.4038334 6.34968328,23.8304003 6.34968328,21.0079264 L6.34968328,7.69552508 L8.83089386,7.69552508 Z" id="Fill-18" fill="#FFFFFF"></path>
                </g>
                <g id="C" transform="translate(63.462963, 0.000000)">
                    <polygon id="Fill-19" fill="#4A88C2" points="0.53195872 32.3203318 20.3949399 32.3203318 20.3949399 0.292288997 0.53195872 0.292288997"></polygon>
                    <path d="M14.2077757,18.6603007 L14.2077757,20.9829344 C14.2077757,23.8052217 12.9446037,25.3788414 10.508901,25.3788414 C8.0728238,25.3788414 6.80983911,23.8052217 6.80983911,20.9829344 L6.80983911,11.891552 C6.80983911,9.0692647 8.0728238,7.49583159 10.508901,7.49583159 C12.9446037,7.49583159 14.2077757,9.0692647 14.2077757,11.891552 L14.2077757,13.5900385 L11.8621524,13.5900385 L11.8621524,11.7168505 C11.8621524,10.4429857 11.3658729,9.99335335 10.5765074,9.99335335 C9.78714199,9.99335335 9.29086242,10.4429857 9.29086242,11.7168505 L9.29086242,21.1578225 C9.29086242,22.4316874 9.78714199,22.8561223 10.5765074,22.8561223 C11.3658729,22.8561223 11.8621524,22.4316874 11.8621524,21.1578225 L11.8621524,18.6603007 L14.2077757,18.6603007 Z" id="Fill-20" fill="#FFFFFF"></path>
                </g>
                <g id="K" transform="translate(84.157407, 0.000000)">
                    <polygon id="Fill-21" fill="#4A88C2" points="0.904862984 32.2690039 20.7678442 32.2690039 20.7678442 0.240961108 0.904862984 0.240961108"></polygon>
                    <polygon id="Fill-22" fill="#FFFFFF" points="10.3179006 18.1594152 9.55100822 19.757859 9.55100822 25.127876 7.06998491 25.127876 7.06998491 7.64429051 9.55100822 7.64429051 9.55100822 15.2620958 12.7989239 7.64429051 15.2799472 7.64429051 11.8290251 15.4369839 15.2799472 25.127876 12.7313175 25.127876"></polygon>
                </g>
                <g id="I" transform="translate(105.851852, 0.000000)">
                    <polygon id="Fill-23" fill="#4A88C2" points="0.236379404 32.3203318 20.0993606 32.3203318 20.0993606 0.292288997 0.236379404 0.292288997"></polygon>
                    <polygon id="Fill-24" fill="#FFFFFF" points="8.92763926 25.179036 11.4086626 25.179036 11.4086626 7.69545042 8.92763926 7.69545042"></polygon>
                </g>
                <g id="N" transform="translate(126.925926, 0.000000)">
                    <path d="M18.3795343,32.214615 L0.17169233,32.214615 C0.0741218935,16.2006869 0.17169233,0.18657221 0.17169233,0.18657221 L18.4186749,0.18657221 C19.2687175,0.18657221 19.9850456,0.817251982 20.0914179,1.65753619 C20.5742137,5.47334478 21.6175244,16.3968528 20.0556484,30.7132276 C19.9625725,31.5669504 19.2410008,32.214615 18.3795343,32.214615" id="Fill-25" fill="#4A88C2"></path>
                    <polygon id="Fill-26" fill="#FFFFFF" points="8.18364845 12.4103556 8.18364845 25.0734125 5.95076493 25.0734125 5.95076493 7.58982696 9.06328058 7.58982696 11.6120976 18.0549303 11.6120976 7.58982696 13.8223208 7.58982696 13.8223208 25.0734125 11.2736911 25.0734125"></polygon>
                </g>
            </g>
        </g>
    </g>
</svg>